<svg xmlns="http://www.w3.org/2000/svg" width="37.999" height="6.001" viewBox="0 0 37.999 6.001">
  <path id="crowdfund" d="M2.166,6A2.086,2.086,0,0,0,4.014,4.938L2.943,4.321a.837.837,0,0,1-.793.46.9.9,0,0,1-.924-.954.9.9,0,0,1,.924-.955.845.845,0,0,1,.793.46l1.07-.625A2.1,2.1,0,0,0,2.166,1.653,2.125,2.125,0,0,0,0,3.827,2.125,2.125,0,0,0,2.166,6Zm3.386-.115V4.025a.969.969,0,0,1,1.226-.94v-1.4A1.228,1.228,0,0,0,5.552,2.5V1.769H4.326V5.886H5.552ZM8.971,6a2.15,2.15,0,0,0,2.166-2.173,2.167,2.167,0,1,0-4.333,0A2.15,2.15,0,0,0,8.97,6Zm0-1.2a.92.92,0,0,1-.94-.971.941.941,0,1,1,1.88,0,.92.92,0,0,1-.94.971Zm4.522,1.087.654-2.2.654,2.2h1.144l1.308-4.117H15.945l-.588,2.207-.638-2.207H13.575l-.638,2.207-.589-2.207H11.041l1.307,4.117ZM19.109,6a1.531,1.531,0,0,0,1.218-.5v.387h1.226V.122H20.327V2.155a1.533,1.533,0,0,0-1.218-.5,2.061,2.061,0,0,0-1.953,2.174A2.061,2.061,0,0,0,19.109,6Zm.246-1.169a.937.937,0,0,1-.973-1,.973.973,0,1,1,1.945,0,.936.936,0,0,1-.972,1Zm4.366,1.054V2.954h.76V1.768h-.76c0-.477.3-.617.76-.576V.007C23.125-.076,22.5.616,22.5,1.768h-.547V2.954H22.5v2.93h1.226ZM26.184,6a1.4,1.4,0,0,0,1.169-.5v.387h1.226V1.768H27.353V4.016c0,.584-.311.848-.76.848a.677.677,0,0,1-.712-.75V1.769H24.655V4.3A1.535,1.535,0,0,0,26.184,6Zm4.3-.115V3.637c0-.584.31-.848.76-.848a.677.677,0,0,1,.711.75V5.885h1.227V3.357a1.535,1.535,0,0,0-1.529-1.7,1.4,1.4,0,0,0-1.169.5V1.768H29.259V5.885ZM35.555,6a1.533,1.533,0,0,0,1.218-.5v.387H38V.122H36.773V2.155a1.533,1.533,0,0,0-1.218-.5A2.062,2.062,0,0,0,33.6,3.827,2.061,2.061,0,0,0,35.555,6ZM35.8,4.831a.937.937,0,0,1-.973-1,.973.973,0,1,1,1.946,0,.937.937,0,0,1-.973,1Z" transform="translate(0 0)" fill="#fff"/>
</svg>
