<svg xmlns="http://www.w3.org/2000/svg" xmlns:xlink="http://www.w3.org/1999/xlink" width="375" height="136" viewBox="0 0 375 136">
  <defs>
    <clipPath id="clip-path">
      <rect id="Mask" width="375" height="136" fill="#5964e0"/>
    </clipPath>
  </defs>
  <g id="background" transform="translate(0 -0.456)">
    <rect id="Mask-2" data-name="Mask" width="375" height="136" transform="translate(0 0.456)" fill="#5964e0"/>
    <g id="Triangle" transform="translate(0 0.456)" clip-path="url(#clip-path)">
      <g id="Group_19" data-name="Group 19" transform="translate(-290 -542)">
        <path id="Triangle_Copy" data-name="Triangle Copy" d="M221.78,63.394c15.682-27.831,55.758-27.831,71.44,0L480.558,395.873C495.958,423.2,476.209,457,444.838,457H70.162c-31.371,0-51.12-33.8-35.72-61.127Z" transform="matrix(0.819, -0.574, 0.574, 0.819, 326.506, 296.02)" fill="#fff" opacity="0.081"/>
        <path id="Triangle_Copy_2" data-name="Triangle Copy 2" d="M221.78,63.394c15.682-27.831,55.758-27.831,71.44,0L480.558,395.873C495.958,423.2,476.209,457,444.838,457H70.162c-31.371,0-51.12-33.8-35.72-61.127Z" transform="matrix(0.819, -0.574, 0.574, 0.819, 0.506, 691.02)" fill="#fff" opacity="0.081"/>
      </g>
    </g>
  </g>
</svg>
