<svg xmlns="http://www.w3.org/2000/svg" width="20" height="18.604" viewBox="0 0 20 18.604">
  <path id="sun" d="M9.388,17.966v-1.89a.613.613,0,1,1,1.224,0v1.89a.613.613,0,1,1-1.224,0Zm6.583-1.932L14.488,14.6a.647.647,0,0,1,0-.941.7.7,0,0,1,.97,0l1.482,1.437a.65.65,0,0,1,0,.941.7.7,0,0,1-.97,0Zm-12.911,0a.65.65,0,0,1,0-.941l1.482-1.437a.7.7,0,0,1,.971,0,.649.649,0,0,1,0,.941L4.029,16.034a.7.7,0,0,1-.97,0ZM6.4,12.454A4.61,4.61,0,0,1,4.9,9.1a4.509,4.509,0,0,1,1.5-3.35,5.312,5.312,0,0,1,3.6-1.4,5.194,5.194,0,0,1,3.6,1.4A4.605,4.605,0,0,1,15.1,9.1a4.607,4.607,0,0,1-1.5,3.35,5.315,5.315,0,0,1-3.6,1.4A5.2,5.2,0,0,1,6.4,12.454ZM17.392,9.9a.6.6,0,1,1,0-1.187h1.949a.6.6,0,1,1,0,1.187ZM.658,9.9a.6.6,0,1,1,0-1.187H2.607a.6.6,0,1,1,0,1.187ZM14.488,4.95a.648.648,0,0,1,0-.941L15.97,2.571a.7.7,0,0,1,.97,0,.649.649,0,0,1,0,.941L15.458,4.95a.7.7,0,0,1-.97,0Zm-9.947,0L3.059,3.512a.649.649,0,0,1,0-.941.7.7,0,0,1,.97,0L5.513,4.009a.65.65,0,0,1,0,.941.628.628,0,0,1-.465.2A.77.77,0,0,1,4.541,4.95ZM9.388,2.528V.638a.613.613,0,1,1,1.224,0v1.89a.613.613,0,1,1-1.224,0Z" fill="#fff"/>
</svg>
