<svg xmlns="http://www.w3.org/2000/svg" width="37.997" height="3" viewBox="0 0 37.997 3">
  <path id="vector" d="M3.229,2.912,4.913.088H3.693L2.466,2.383,1.237.088H0L1.7,2.912Zm7.879,0V2.074H7.774V1.72h2.72V1.278H7.774V.926H11.1V.088H6.678V2.912h4.43ZM15.65,3a5.653,5.653,0,0,0,1.38-.141,1.75,1.75,0,0,0,.826-.424,1.034,1.034,0,0,0,.3-.7h-1.14a.556.556,0,0,1-.194.214,1.134,1.134,0,0,1-.418.156,3.928,3.928,0,0,1-.757.058,5.112,5.112,0,0,1-.913-.066,1.1,1.1,0,0,1-.513-.208.463.463,0,0,1-.162-.366.515.515,0,0,1,.162-.4,1.043,1.043,0,0,1,.513-.218A4.894,4.894,0,0,1,15.65.838,3.626,3.626,0,0,1,16.409.9a1.065,1.065,0,0,1,.42.17.565.565,0,0,1,.194.25h1.14a1.092,1.092,0,0,0-.3-.72,1.776,1.776,0,0,0-.83-.448A5.27,5.27,0,0,0,15.651,0a7.8,7.8,0,0,0-1.14.075,2.894,2.894,0,0,0-.86.25,1.316,1.316,0,0,0-.544.467,1.323,1.323,0,0,0-.19.73,1.293,1.293,0,0,0,.19.724,1.286,1.286,0,0,0,.543.452,3.021,3.021,0,0,0,.86.234A8.67,8.67,0,0,0,15.65,3Zm7.019-.088V.926H24.4V.088H19.841V.926h1.733V2.912h1.1ZM28.6,3a5.692,5.692,0,0,0,1.54-.17,1.622,1.622,0,0,0,.848-.5,1.286,1.286,0,0,0,.266-.827,1.284,1.284,0,0,0-.266-.827,1.633,1.633,0,0,0-.848-.5A5.692,5.692,0,0,0,28.6,0a5.682,5.682,0,0,0-1.54.17,1.625,1.625,0,0,0-.849.5,1.285,1.285,0,0,0-.265.827,1.283,1.283,0,0,0,.265.827,1.631,1.631,0,0,0,.85.5A5.669,5.669,0,0,0,28.6,3Zm0-.838a5.1,5.1,0,0,1-.792-.055,1.183,1.183,0,0,1-.53-.2A.48.48,0,0,1,27.09,1.5a.48.48,0,0,1,.191-.408,1.193,1.193,0,0,1,.531-.2A5.094,5.094,0,0,1,28.6.838a4.869,4.869,0,0,1,.78.055,1.1,1.1,0,0,1,.51.2.491.491,0,0,1,.18.408.491.491,0,0,1-.18.408,1.1,1.1,0,0,1-.51.2A4.869,4.869,0,0,1,28.6,2.162Zm5.691.75V2.118H36.01a3.654,3.654,0,0,1,.52.026.339.339,0,0,1,.219.095.332.332,0,0,1,.05.2v.473h1.1v-.6a.382.382,0,0,0-.112-.3.734.734,0,0,0-.395-.144l-.11-.013-.039,0,.077-.014a1.159,1.159,0,0,0,.288-.094l.063-.034a.63.63,0,0,0,.241-.247A.823.823,0,0,0,38,1.06.845.845,0,0,0,37.81.482a1.027,1.027,0,0,0-.5-.3,2.623,2.623,0,0,0-.717-.09H33.2V2.913h1.1Zm2.294-1.531H34.3V.97h2.294a.535.535,0,0,1,.221.041.157.157,0,0,1,.09.157.17.17,0,0,1-.09.168.5.5,0,0,1-.221.044Z" fill="#fff"/>
</svg>
