<svg xmlns="http://www.w3.org/2000/svg" width="115" height="32" viewBox="0 0 115 32">
  <path id="logo" d="M7.612,24.08a7.482,7.482,0,0,0,2.838-.531,7,7,0,0,0,2.29-1.5l.109,1.711H17.1V0H12.6V9.49A7.338,7.338,0,0,0,7.612,7.6,7.275,7.275,0,0,0,3.7,8.674,7.48,7.48,0,0,0,.985,11.6,8.914,8.914,0,0,0,0,15.842a8.915,8.915,0,0,0,.985,4.237A7.48,7.48,0,0,0,3.7,23.009a7.275,7.275,0,0,0,3.915,1.07Zm1.017-3.961A3.7,3.7,0,0,1,5.784,18.9a4.336,4.336,0,0,1-1.126-3.057,4.334,4.334,0,0,1,1.126-3.058,3.7,3.7,0,0,1,2.845-1.22,3.7,3.7,0,0,1,2.844,1.22A4.339,4.339,0,0,1,12.6,15.842,4.332,4.332,0,0,1,11.473,18.9,3.7,3.7,0,0,1,8.629,20.119Zm20.258,3.96a11.732,11.732,0,0,0,3.4-.538,10.985,10.985,0,0,0,3.587-1.98l-2.72-3.3a7.8,7.8,0,0,1-1.946,1.37,6.053,6.053,0,0,1-2.7.531,4.389,4.389,0,0,1-2.65-.823A4.154,4.154,0,0,1,24.307,17.2H36.5V15.826a8.379,8.379,0,0,0-1.063-4.246,7.772,7.772,0,0,0-2.9-2.915A8.237,8.237,0,0,0,28.34,7.6,8.377,8.377,0,0,0,24.1,8.674a7.9,7.9,0,0,0-2.947,2.914,8.178,8.178,0,0,0-1.078,4.206,8.146,8.146,0,0,0,1.125,4.27,7.95,7.95,0,0,0,3.11,2.946,9.508,9.508,0,0,0,4.58,1.07Zm2.985-9.41H24.213A4.047,4.047,0,0,1,25.6,12.436a3.8,3.8,0,0,1,2.494-.872,3.664,3.664,0,0,1,2.438.856,4.064,4.064,0,0,1,1.344,2.25Zm16.273,9.093L54.319,7.921H49.583l-2.61,7.715q-.29.877-.509,1.774-.29,1.14-.477,2.075h-.062q-.181-1.052-.43-2.09A16.767,16.767,0,0,0,45,15.635l-2.83-7.714H37.281l6.487,15.841h4.377ZM58.4,5.07a2.431,2.431,0,0,0,1.813-.7A2.5,2.5,0,0,0,60.9,2.536,2.507,2.507,0,0,0,60.212.7a2.7,2.7,0,0,0-3.626,0A2.5,2.5,0,0,0,55.9,2.535a2.5,2.5,0,0,0,.688,1.837,2.43,2.43,0,0,0,1.813.7ZM54.882,32a5.734,5.734,0,0,0,4.283-1.513,5.928,5.928,0,0,0,1.485-4.333V7.921h-4.5v17.71a2.259,2.259,0,0,1-.711,1.767,2.592,2.592,0,0,1-1.806.642,4.264,4.264,0,0,1-1.672-.365v3.739A7.938,7.938,0,0,0,54.882,32Zm16.835-7.92A8.494,8.494,0,0,0,76,23.01a7.9,7.9,0,0,0,2.962-2.93,8.257,8.257,0,0,0,1.086-4.238A8.252,8.252,0,0,0,78.962,11.6,7.9,7.9,0,0,0,76,8.674a9.123,9.123,0,0,0-8.574,0,7.887,7.887,0,0,0-2.97,2.93,8.249,8.249,0,0,0-1.086,4.238,8.251,8.251,0,0,0,1.086,4.237,7.887,7.887,0,0,0,2.97,2.93,8.526,8.526,0,0,0,4.29,1.07Zm0-3.961a3.7,3.7,0,0,1-2.845-1.22,4.336,4.336,0,0,1-1.126-3.057,4.339,4.339,0,0,1,1.126-3.058,3.927,3.927,0,0,1,5.69,0,4.338,4.338,0,0,1,1.125,3.058A4.335,4.335,0,0,1,74.562,18.9,3.705,3.705,0,0,1,71.717,20.119Zm20.79,3.96a7.264,7.264,0,0,0,3.923-1.07,7.505,7.505,0,0,0,2.7-2.93,8.913,8.913,0,0,0,.985-4.237,8.917,8.917,0,0,0-.985-4.238,7.505,7.505,0,0,0-2.7-2.93A7.265,7.265,0,0,0,92.506,7.6,7.343,7.343,0,0,0,87.52,9.489V0h-4.5V23.762H87.27l.11-1.71a6.978,6.978,0,0,0,2.3,1.5,7.5,7.5,0,0,0,2.83.53Zm-1.017-3.96a3.7,3.7,0,0,1-2.844-1.22,4.336,4.336,0,0,1-1.126-3.057,4.334,4.334,0,0,1,1.126-3.058,3.926,3.926,0,0,1,5.689,0,4.339,4.339,0,0,1,1.126,3.058A4.332,4.332,0,0,1,94.335,18.9,3.7,3.7,0,0,1,91.49,20.119Zm17.3,3.96a7.921,7.921,0,0,0,3.111-.594,5.338,5.338,0,0,0,2.25-1.719A4.326,4.326,0,0,0,115,19.089a3.814,3.814,0,0,0-.79-2.51,5.958,5.958,0,0,0-1.93-1.537q-1.14-.579-2.22-1.006a18.283,18.283,0,0,1-1.727-.777,1.114,1.114,0,0,1-.727-.966.7.7,0,0,1,.524-.7,2.964,2.964,0,0,1,.961-.182,6.277,6.277,0,0,1,1.868.356,7.278,7.278,0,0,1,1.79.816l1.985-3.47A9.31,9.31,0,0,0,111.9,7.96a13.27,13.27,0,0,0-2.962-.356,6.8,6.8,0,0,0-4.447,1.3,4.109,4.109,0,0,0-1.571,3.31,3.662,3.662,0,0,0,.742,2.377,5.807,5.807,0,0,0,1.845,1.5q1.075.566,2.2,1.038a16.983,16.983,0,0,1,1.821.871,1.315,1.315,0,0,1,.79,1.156.97.97,0,0,1-.422.808,1.8,1.8,0,0,1-1.11.317,4.88,4.88,0,0,1-2.025-.53,18.978,18.978,0,0,1-2.477-1.434l-2.126,3.437a11.456,11.456,0,0,0,3.306,1.759,10.632,10.632,0,0,0,3.337.57Z" fill="#fff"/>
</svg>
