<svg xmlns="http://www.w3.org/2000/svg" width="34" height="7" viewBox="0 0 34 7">
  <path id="pomodoro" d="M1,7V4.9a1.64,1.64,0,0,0,1.109.416,1.624,1.624,0,0,0,1.472-.884A1.96,1.96,0,0,0,3.8,3.5a1.96,1.96,0,0,0-.22-.936A1.624,1.624,0,0,0,2.108,1.68,1.69,1.69,0,0,0,1.48,1.8a1.552,1.552,0,0,0-.51.331L.944,1.75H0V7Zm.883-2.555a.825.825,0,0,1-.632-.27A.955.955,0,0,1,1,3.5a.952.952,0,0,1,.25-.675.825.825,0,0,1,.632-.27.826.826,0,0,1,.632.27.952.952,0,0,1,.25.675.956.956,0,0,1-.25.676.825.825,0,0,1-.632.269Zm4.189.875a1.9,1.9,0,0,0,.952-.236,1.757,1.757,0,0,0,.658-.648A1.822,1.822,0,0,0,7.923,3.5a1.812,1.812,0,0,0-.241-.936,1.757,1.757,0,0,0-.658-.648,1.9,1.9,0,0,0-.952-.236,1.912,1.912,0,0,0-.954.236,1.748,1.748,0,0,0-.66.648,1.822,1.822,0,0,0-.241.936,1.812,1.812,0,0,0,.241.936,1.755,1.755,0,0,0,.66.648A1.914,1.914,0,0,0,6.072,5.32Zm0-.875a.825.825,0,0,1-.632-.27A.955.955,0,0,1,5.19,3.5a.952.952,0,0,1,.25-.675.875.875,0,0,1,1.264,0,.952.952,0,0,1,.25.675.956.956,0,0,1-.25.676A.825.825,0,0,1,6.072,4.445Zm3.512.805V3.392a.906.906,0,0,1,.19-.627.616.616,0,0,1,.92-.007.864.864,0,0,1,.189.609V5.25h1V3.392a.906.906,0,0,1,.191-.627.615.615,0,0,1,.919-.007.865.865,0,0,1,.19.609V5.25h1V3.367a1.956,1.956,0,0,0-.351-1.24,1.179,1.179,0,0,0-.983-.447,1.319,1.319,0,0,0-.7.179,1.267,1.267,0,0,0-.469.51,1.162,1.162,0,0,0-1.136-.689,1.229,1.229,0,0,0-1,.441L9.528,1.75H8.583v3.5h1Zm7.044.07a1.9,1.9,0,0,0,.952-.236,1.757,1.757,0,0,0,.658-.648A1.813,1.813,0,0,0,18.48,3.5a1.8,1.8,0,0,0-.242-.936,1.749,1.749,0,0,0-.658-.648,2.04,2.04,0,0,0-1.905,0,1.748,1.748,0,0,0-.66.648,1.813,1.813,0,0,0-.242.936,1.8,1.8,0,0,0,.242.936,1.74,1.74,0,0,0,.66.648,1.911,1.911,0,0,0,.953.236Zm0-.875A.825.825,0,0,1,16,4.175a.955.955,0,0,1-.25-.675A.952.952,0,0,1,16,2.825a.876.876,0,0,1,1.265,0,.957.957,0,0,1,.25.675.961.961,0,0,1-.25.676A.825.825,0,0,1,16.628,4.445Zm3.96.875a1.685,1.685,0,0,0,.63-.117,1.559,1.559,0,0,0,.51-.331l.024.378H22.7V0h-1V2.1a1.676,1.676,0,0,0-2.582.468A1.962,1.962,0,0,0,18.9,3.5a1.971,1.971,0,0,0,.218.936A1.626,1.626,0,0,0,20.588,5.32Zm.226-.875a.825.825,0,0,1-.632-.27.955.955,0,0,1-.25-.675.952.952,0,0,1,.25-.675.875.875,0,0,1,1.264,0,.952.952,0,0,1,.25.675.956.956,0,0,1-.25.676A.825.825,0,0,1,20.814,4.445Zm4.4.875a1.9,1.9,0,0,0,.951-.236,1.759,1.759,0,0,0,.659-.648,1.822,1.822,0,0,0,.241-.936,1.812,1.812,0,0,0-.241-.936,1.752,1.752,0,0,0-.659-.648,2.04,2.04,0,0,0-1.905,0,1.748,1.748,0,0,0-.66.648,1.822,1.822,0,0,0-.241.936,1.812,1.812,0,0,0,.241.936,1.755,1.755,0,0,0,.66.648A1.914,1.914,0,0,0,25.212,5.32Zm0-.875a.825.825,0,0,1-.633-.27.955.955,0,0,1-.25-.675.957.957,0,0,1,.25-.675.876.876,0,0,1,1.265,0,.952.952,0,0,1,.25.675.956.956,0,0,1-.25.676A.825.825,0,0,1,25.212,4.445Zm3.512.805V3.707a1.31,1.31,0,0,1,.246-.853.8.8,0,0,1,.65-.3,1.243,1.243,0,0,1,.4.067l.139-.872a1.657,1.657,0,0,0-.466-.07,1.187,1.187,0,0,0-1.042.57l-.049-.5h-.875v3.5h1Zm3.425.07a1.9,1.9,0,0,0,.951-.236,1.759,1.759,0,0,0,.659-.648A1.822,1.822,0,0,0,34,3.5a1.812,1.812,0,0,0-.241-.936,1.752,1.752,0,0,0-.659-.648,2.04,2.04,0,0,0-1.905,0,1.748,1.748,0,0,0-.66.648,1.822,1.822,0,0,0-.241.936,1.812,1.812,0,0,0,.241.936,1.755,1.755,0,0,0,.66.648A1.914,1.914,0,0,0,32.149,5.32Zm0-.875a.825.825,0,0,1-.633-.27.955.955,0,0,1-.25-.675.957.957,0,0,1,.25-.675.876.876,0,0,1,1.265,0,.957.957,0,0,1,.25.675.961.961,0,0,1-.25.676A.825.825,0,0,1,32.149,4.445Z" fill="#d7e0ff"/>
</svg>
