<svg xmlns="http://www.w3.org/2000/svg" width="39.982" height="11.424" viewBox="0 0 39.982 11.424">
  <path id="scoot" d="M3.648,11.424a3.756,3.756,0,0,0,2.432-.7,2.311,2.311,0,0,0,.864-1.888v-.1a2,2,0,0,0-.768-1.672,3.8,3.8,0,0,0-1.984-.728,5.9,5.9,0,0,1-1.456-.28.571.571,0,0,1-.4-.552.546.546,0,0,1,.256-.456,1.312,1.312,0,0,1,.768-.184,1.553,1.553,0,0,1,.912.248,1.312,1.312,0,0,1,.5.68l1.824-.736a3.533,3.533,0,0,0-.368-.7A2.777,2.777,0,0,0,5.6,3.7a3.153,3.153,0,0,0-.936-.48,4.127,4.127,0,0,0-1.3-.184,3.938,3.938,0,0,0-1.12.16,2.99,2.99,0,0,0-.96.472,2.477,2.477,0,0,0-.672.76,2.06,2.06,0,0,0-.256,1.04v.1a2,2,0,0,0,.792,1.72,4.118,4.118,0,0,0,2.136.7,6.084,6.084,0,0,1,.824.128,1.781,1.781,0,0,1,.52.2.714.714,0,0,1,.264.256.623.623,0,0,1,.072.3.656.656,0,0,1-.28.5A1.674,1.674,0,0,1,3.648,9.6a1.78,1.78,0,0,1-1.256-.384,1.819,1.819,0,0,1-.536-.9L0,8.928a3.074,3.074,0,0,0,.312.856,2.668,2.668,0,0,0,.664.8,3.627,3.627,0,0,0,1.088.6,4.624,4.624,0,0,0,1.584.24Zm8.2,0a4.046,4.046,0,0,0,2.712-.864,3.837,3.837,0,0,0,1.288-2.272l-1.984-.5a2.219,2.219,0,0,1-.632,1.248,1.974,1.974,0,0,1-1.416.464A2.418,2.418,0,0,1,11,9.368a1.881,1.881,0,0,1-.672-.408,1.931,1.931,0,0,1-.456-.68A2.442,2.442,0,0,1,9.7,7.344v-.1A2.563,2.563,0,0,1,9.868,6.3a2.151,2.151,0,0,1,.456-.72A2,2,0,0,1,11,5.12a2.1,2.1,0,0,1,.816-.16,1.943,1.943,0,0,1,1.44.512,2.077,2.077,0,0,1,.608,1.216l1.984-.512a3.8,3.8,0,0,0-1.3-2.272,4.06,4.06,0,0,0-2.7-.864,4.546,4.546,0,0,0-1.624.288,3.89,3.89,0,0,0-1.328.832A3.826,3.826,0,0,0,8,5.472,4.461,4.461,0,0,0,7.684,7.2v.192A4.344,4.344,0,0,0,8,9.1a3.59,3.59,0,0,0,.88,1.264,3.852,3.852,0,0,0,1.32.784A4.832,4.832,0,0,0,11.844,11.424Zm8.2,0a4.492,4.492,0,0,0,1.56-.272,4,4,0,0,0,1.32-.792,3.73,3.73,0,0,0,.912-1.28,4.3,4.3,0,0,0,.336-1.752V7.136A4.254,4.254,0,0,0,23.831,5.4a3.815,3.815,0,0,0-.912-1.288,3.93,3.93,0,0,0-1.32-.8,4.609,4.609,0,0,0-3.12,0,3.93,3.93,0,0,0-1.32.8A3.815,3.815,0,0,0,16.247,5.4a4.254,4.254,0,0,0-.336,1.736v.192a4.3,4.3,0,0,0,.336,1.752,3.73,3.73,0,0,0,.912,1.28,4,4,0,0,0,1.32.792,4.507,4.507,0,0,0,1.56.272Zm0-1.92a2.3,2.3,0,0,1-.816-.144A1.938,1.938,0,0,1,18.1,8.28a2.234,2.234,0,0,1-.168-.888v-.32a2.235,2.235,0,0,1,.168-.888A1.938,1.938,0,0,1,19.223,5.1a2.384,2.384,0,0,1,1.632,0,1.985,1.985,0,0,1,.672.416,1.964,1.964,0,0,1,.456.664,2.232,2.232,0,0,1,.168.888v.32a2.235,2.235,0,0,1-.168.888,1.938,1.938,0,0,1-1.128,1.08,2.3,2.3,0,0,1-.816.144Zm8.292,1.92a4.492,4.492,0,0,0,1.56-.272,4,4,0,0,0,1.32-.792,3.73,3.73,0,0,0,.912-1.28,4.3,4.3,0,0,0,.336-1.752V7.136A4.254,4.254,0,0,0,32.123,5.4a3.815,3.815,0,0,0-.912-1.288,3.93,3.93,0,0,0-1.32-.8,4.609,4.609,0,0,0-3.12,0,3.93,3.93,0,0,0-1.32.8A3.815,3.815,0,0,0,24.539,5.4,4.254,4.254,0,0,0,24.2,7.136v.192a4.3,4.3,0,0,0,.336,1.752,3.73,3.73,0,0,0,.912,1.28,4,4,0,0,0,1.32.792,4.507,4.507,0,0,0,1.56.272Zm0-1.92a2.3,2.3,0,0,1-.816-.144,1.938,1.938,0,0,1-1.128-1.08,2.234,2.234,0,0,1-.168-.888v-.32a2.235,2.235,0,0,1,.168-.888A1.938,1.938,0,0,1,27.515,5.1a2.384,2.384,0,0,1,1.632,0,1.985,1.985,0,0,1,.672.416,1.964,1.964,0,0,1,.456.664,2.232,2.232,0,0,1,.168.888v.32a2.235,2.235,0,0,1-.168.888,1.938,1.938,0,0,1-1.128,1.08,2.3,2.3,0,0,1-.816.144Zm11.364,1.7V9.28H37.55q-.432,0-.432-.48V5.184h2.864V3.264H37.118V0H35.1V3.264H32.751v1.92H35.1V9.952a1.23,1.23,0,0,0,.344.9,1.186,1.186,0,0,0,.888.352h3.36Z" fill="#fff"/>
</svg>
