<svg xmlns="http://www.w3.org/2000/svg" width="24" height="24" viewBox="0 0 24 24">
  <path id="coffeeroasters" d="M22.123,9.378c2.89,2.89,2.387,8.1-1.126,11.613a10.032,10.032,0,0,1-5.987,2.965c-.29.029-.576.044-.856.044a6.613,6.613,0,0,1-4.769-1.886,6.771,6.771,0,0,1-1.839-5.625A10.022,10.022,0,0,1,10.51,10.5c3.515-3.512,8.724-4.019,11.613-1.125Zm-.18.18a23.1,23.1,0,0,1-2.851,3.453,10.77,10.77,0,0,1-4.161,1.85c-3.338.97-4.988,3.791-5.369,7.075a21.025,21.025,0,0,1,3.125-3.663,10.224,10.224,0,0,1,3.754-1.6c3.411-.936,5.1-3.781,5.5-7.117ZM13.49,3a10.573,10.573,0,0,1,2.165,3.151A11.351,11.351,0,0,0,10.9,8.2a7.17,7.17,0,0,0-1.837-.84,10.764,10.764,0,0,1-4.16-1.85A23.406,23.406,0,0,1,2.056,2.056c.4,3.336,2.091,6.182,5.5,7.118.576.157,1.128.32,1.666.511a11.6,11.6,0,0,0-3.07,5.97A10.607,10.607,0,0,1,3,13.491C-.508,9.978-1.014,4.768,1.877,1.878S9.975-.51,13.489,3Z" transform="translate(0 0)" fill="#0e8784"/>
</svg>
