<svg xmlns="http://www.w3.org/2000/svg" width="25" height="25" viewBox="0 0 25 25">
  <g id="mastercraft" transform="translate(-0.993 -0.537)">
    <path id="Path_5" data-name="Path 5" d="M.565.565A1.929,1.929,0,0,1,3.171.452l.123.113L13.435,10.707a1.929,1.929,0,0,1-2.606,2.841l-.123-.113L.565,3.293A1.929,1.929,0,0,1,.565.565Z" transform="translate(1.993 11.537)" fill="#444"/>
    <path id="Path_3" data-name="Path 3" d="M22.189.48A1.65,1.65,0,0,1,25,1.506l0,.126V12.368a1.647,1.647,0,0,1-3.288.122l0-.122V5.563L13.664,13.52a1.65,1.65,0,0,1-2.806-1.025l0-.126V5.563L2.811,13.52a1.66,1.66,0,0,1-2.224.1l-.1-.1a1.616,1.616,0,0,1-.1-2.2l.1-.1L11.336.48a1.65,1.65,0,0,1,2.806,1.025l0,.126v6.8Z" transform="translate(0.993 0.537)" fill="#fff"/>
  </g>
</svg>
