<svg id="typemaster" xmlns="http://www.w3.org/2000/svg" width="24" height="24" viewBox="0 0 24 24">
  <rect id="Rectangle" width="24" height="24" fill="#fff"/>
  <path id="TM" d="M9.861,6.6a.16.16,0,0,1-.173-.179V3.092c0-.076-.055-.085-.092-.028l-.564.971a.221.221,0,0,1-.209.122H8.186a.221.221,0,0,1-.209-.122l-.565-.971c-.036-.057-.091-.048-.091.028V6.421a.161.161,0,0,1-.173.179H5.782a.161.161,0,0,1-.173-.179V.179A.161.161,0,0,1,5.782,0H7.139a.223.223,0,0,1,.21.122L8.45,1.98a.056.056,0,0,0,.109,0L9.661.122A.223.223,0,0,1,9.87,0h1.356A.161.161,0,0,1,11.4.179V6.421a.161.161,0,0,1-.174.179ZM1.84,6.6a.161.161,0,0,1-.174-.179V1.6a.068.068,0,0,0-.072-.076H.173A.161.161,0,0,1,0,1.348V.179A.161.161,0,0,1,.173,0H4.917a.16.16,0,0,1,.173.179V1.348a.16.16,0,0,1-.173.179H3.451a.069.069,0,0,0-.073.076V6.421A.16.16,0,0,1,3.2,6.6Z" transform="translate(3 3.6)" fill="#f16718"/>
</svg>
