<svg xmlns="http://www.w3.org/2000/svg" width="24" height="24" viewBox="0 0 24 24">
  <path id="pod" d="M12,0A12,12,0,1,1,0,12,12,12,0,0,1,12,0ZM9.943,5.926A1.262,1.262,0,0,0,8.666,7.02L7.661,14a.145.145,0,0,1-.283.016l-.325-1.431a1.972,1.972,0,0,0-1.882-1.527.573.573,0,1,0,0,1.146.817.817,0,0,1,.754.636l.324,1.43a1.305,1.305,0,0,0,2.558-.106L9.812,7.183a.113.113,0,0,1,.13-.111L10,7.08a.11.11,0,0,1,.074.1l1.41,9.777a1.279,1.279,0,0,0,1.3,1.114H12.8a1.278,1.278,0,0,0,1.284-1.153l.2-1.734a.579.579,0,0,0-1.15-.128l-.2,1.733a.155.155,0,0,1-.306.006L11.217,7.02a1.26,1.26,0,0,0-1.274-1.1Zm4.8,3.925a1.144,1.144,0,0,0-1.132,1.029l-.245,2.144a.579.579,0,0,0,1.15.129l.245-2.145,0-.01a.065.065,0,0,1,.022,0l0,.008.455,2.743a1.247,1.247,0,0,0,2.435.1v-.007l.205-.858a1.023,1.023,0,0,1,.946-.778.573.573,0,1,0,0-1.146,2.177,2.177,0,0,0-2.07,1.65l0,.007-.2.859a.074.074,0,0,1-.087.062c-.071,0-.078-.044-.083-.07l-.454-2.744a1.145,1.145,0,0,0-1.185-.968Z" fill="#54e6af"/>
</svg>
