<svg xmlns="http://www.w3.org/2000/svg" width="25.607" height="26" viewBox="0 0 25.607 26">
  <path id="creative" d="M13,0A13.007,13.007,0,0,1,25.607,9.814H23.643a2.46,2.46,0,0,1-.567,1.243,1.587,1.587,0,0,1-1.236.468,3.857,3.857,0,0,1-1.58-.387q-.931-.425-1.845-.886a14.576,14.576,0,0,0-2.2-.875A8.837,8.837,0,0,0,13.572,9a4.678,4.678,0,0,0-4.083,2.2A10.173,10.173,0,0,0,8,16.751l0,.414h4.357a2.179,2.179,0,0,1,.638-1.222,1.854,1.854,0,0,1,1.327-.468,3.722,3.722,0,0,1,1.52.377q.939.428,1.864.886a15,15,0,0,0,2.28.885,9.31,9.31,0,0,0,2.7.377,4.3,4.3,0,0,0,2.625-.825A13,13,0,1,1,13,0Z" fill="#f94f4f"/>
</svg>
